<svg xmlns="http://www.w3.org/2000/svg" viewBox="0 0 128 128" role="img" aria-label="Open position">
  <defs>
    <linearGradient id="avatarBg" x1="0" x2="1" y1="0" y2="1">
      <stop offset="0%" stop-color="#e5e7eb"/>
      <stop offset="100%" stop-color="#cbd5f5"/>
    </linearGradient>
  </defs>
  <!-- background circle -->
  <circle cx="64" cy="64" r="64" fill="url(#avatarBg)" />
  <!-- shoulders / body -->
  <path d="M32 96c4-16 16-24 32-24s28 8 32 24v8H32z" fill="#9ca3af"/>
  <!-- head -->
  <circle cx="64" cy="52" r="18" fill="#9ca3af"/>
  <!-- question mark -->
  <path d="M64 34
           c-5 0-9 3-9 8h6c0-2 1-3 3-3s3 1 3 3-1 3-2 4c-2 1-4 3-4 7v3h6v-2
           c0-2 1-3 2-4 2-2 4-4 4-8 0-5-4-9-9-9z
           M64 69a3 3 0 1 0 0 6 3 3 0 0 0 0-6z"
        fill="#4b5563"/>
</svg>
