<svg height="80" viewBox="0 0 327 80" width="327" xmlns="http://www.w3.org/2000/svg"><g fill="none" fill-rule="evenodd"><g fill="#1d1d1b"><path d="m9.12134725 17.6574547c.31564058-.4371429.67216232-.8504762 1.05910725-1.2295238.1464116-.8019048.2414841-1.5961905.3080348-2.2019048 0 0 0 .0009524-.0009507.0019048.2006028-2.0809524.2462376-4.02.2566956-4.98476191-.6693101.56857143-2.12582029 1.94571431-3.21725217 3.95333331-.74346667 1.3542857-1.18175073 2.8371429-1.26541449 4.2857143-.0884174 1.5590476.23102608 2.9752381.95452753 4.2142857.24433623-.9666666.78054493-2.5390476 1.90525218-4.0390476"/><path d="m23.4513345 69.8509785c.093171.0914286.1796869.1761905.2690551.2561905.0874666.0838095.1787362.1619048.2785623.247619.2386319.2009524.4877217.3895238.738713.5609524 1.584858 1.0980953 3.2086957 1.5590476 4.1308986 1.7447619-.0142609-.0304762-.0294725-.0647619-.0456348-.0980952-.0627478-.1333333-.1321507-.2809524-.1920464-.4076191-.4173681-.8742857-1.0790724-2.2085714-1.864371-3.5895238-.6293797-1.0638095-1.3348174-2.1752381-2.2246956-3.0885714-.9298087-.9552381-1.9699015-1.5990476-3.1725682-1.9647619-.2338782 1.1971429-.1473623 2.3761905.255745 3.5057143.3641275 1.02.9963594 1.9990476 1.826342 2.8333333"/><path d="m11.4282806 49.7459309c-.7377623.8371429-1.218829 1.8057143-1.4279884 2.8838095-.19014495.9733334-.14831307 2.0371429.1178898 3.072381.0304232.1190476.0646493.2323809.0941218.3295238.0313739.1028571.0656.2123809.1026782.3180952.0979247.28.2053566.5409524.3194435.7780953.7605797 1.6542857 1.8805333 2.7828571 2.4357565 3.2733333.0028522-.0342857.0066551-.0704762.0114087-.1095238.0114087-.12.0247189-.2580953.0389797-.4047619.0827131-.9104762.1844406-2.2885715.1958493-3.6866667-.0114087-2.3390476-.1673275-4.5961905-1.8881391-6.4542857"/><path d="m10.5993438 27.0348833c.5257507-.9057143.804313-1.8361905.8480463-2.8409524-.1188405.0057143-.2376811.0161905-.3536695.0295238-2.17335654.2714286-3.38362901 1.8695238-3.91128118 2.7971429-.05324058.0942857-.09887536.1790476-.13975652.2580952-.04183189.08-.08366377.1657143-.12644638.2590476-.10648116.2304762-.2006029.4647619-.27856232.6952381-.51529275 1.512381-.53335652 2.9076191-.50483478 3.5542857.02186667-.0180952.04278261-.0380952.0656-.0571428.07130435-.0609524.15496812-.1342857.26525217-.2304762.45729855-.4009524 1.36238841-1.2114286 2.28268986-2.1409524.66550725-.6980952 1.35002895-1.4619048 1.85296235-2.3238095"/><path d="m14.8143814 16.9056452c-.5190956-.1314286-1.0381913-.1657143-1.5458782-.1028572-1.3433739.1676191-2.3302261.9657143-2.9215768 1.6066667-.0713044.08-.1302493.1457143-.1825392.2076191-.0513391.0609523-.1045797.1266666-.17208111.2142857-.1464116.1885714-.28236522.3838095-.40405797.5838095-.78815073 1.227619-1.11329855 2.5161905-1.24259711 3.2523809.02376812-.0123809.05038841-.0257142.07795942-.0380952.08651595-.0428571.18444058-.0923809.28902029-.1438095.63223189-.3180953 1.58390728-.8180953 2.52512468-1.3914286.5190956-.3314286 1.2844289-.747619 2.1828637-1.7038095.6759652-.72 1.1342145-1.5333333 1.3937623-2.4847619"/><path d="m15.7580707 63.9565023c.058945.0952381.1235942.192381.1968.2990476.1720812.2504762.3574725.4904762.5476174.712381 1.2397449 1.4685714 2.7057623 2.3161905 3.4083478 2.667619-.0047536-.0352381-.0104579-.0695238-.017113-.1085714-.0218667-.127619-.0456348-.2704762-.0741565-.4247619-.1663768-.9352381-.4439884-2.3561905-.8261797-3.8219048-.3194435-1.1542857-.6978319-2.3714285-1.2929855-3.4447619-.6255769-1.1247619-1.4289392-1.9847619-2.4557218-2.6257142-.5228985 1.0580952-.7406145 2.1780952-.6531478 3.3361904.0808116 1.0428572.4192696 2.1161905.9820985 3.1019048.0722551.1257143.1292986.2209524.1844406.3085714"/><path d="m13.8672696 14.6826928c1.2321391-.7371429 1.8938434-1.547619 2.6316058-2.5266667.8223768-1.1095238 1.4660174-2.24095235 1.667571-2.62190473-.1026783.00952381-.2044058.01904762-.3080348.03238096-.6883246.0847619-1.7360232.31047619-2.8188986.89619047-.9031884.472381-1.7008463 1.1828571-2.2456116 1.9990476-.6208231.9295238-.8832231 1.9780953-.766284 3.0076191.0741565-.02.2747594-.1542857.3403594-.1914286.4126145-.2371429.9488232-.4342857 1.4992928-.5952381"/><path d="m7.1935629 48.1095499c.2585971 1.6342858.95072464 2.9009524 1.39186087 3.5742858.01045797-.0295239.02376811-.06.03517681-.0933334.03897971-.0980952.07986087-.2104762.12549565-.3295238l.01235942-.0323809c.29852754-.7971429.73015652-2.0180953 1.09713623-3.3038096l-.00095072.0009524c.57708984-2.1314286 1.00206374-4.2209524-.11218551-6.3447619-.86801159.5847619-1.54017391 1.3485714-1.99842319 2.2752381-.41926956.8457143-.64934492 1.8209524-.66645797 2.8228572-.00190145.0942857-.00190145.1933333.00190145.3228571.00475363.1247619.00855652.2228571.01426087.3133333.01996522.28.05324058.5457143.09982609.7904762v.0019048z"/><path d="m19.697018 69.1842166c-.9421681-.5019048-2.4889971-1.4609524-3.7829334-3.0057143-.3736347-.4371428-.8718145-.9457143-1.1665391-1.4438095-.6360348-.2828571-1.1408696-.5304762-2.0307478-.8514286-2.2503652-.7819047-5.67012176-.8723809-5.67012176-.8723809s2.03455073 2.0780952 3.81240576 3.6723809c1.0267826.9333334 2.2246957 1.6838096 3.4653913 2.1676191 1.4137276.5542857 2.8246029.7466666 4.1926957.5761905.3974029-.0485715.7938551-.1304762 1.1798493-.2428572"/><path d="m8.1672 38.3936452h.00095072l-.02947246.0028571c.47155942-.7942857 1.03343768-1.7304762 1.35383188-2.7847619.31183769-1.0247619.36032464-2.0038095.14736232-2.9866666-2.43480579.7990476-3.3417971 2.8285714-3.66694492 3.98-.02376812.0847619-.04753624.175238-.07605797.2942857-.02566957.1133333-.04658551.2066666-.06369856.2942857-.04753623.2504762-.08271304.4914286-.10267826.72-.16067246 1.6142857.17113044 2.9580952.36697971 3.58.0190145-.0266667.04183189-.0561905.06274783-.0866667.06464928-.0866667.13690435-.1857143.21486377-.2914286.69783188-.9619047 1.3005913-1.8780952 1.79211594-2.7219047"/><path d="m31.093069 75.0017404c-.8204754.2761905-1.6761276.5457143-2.2617739.7495238-2.7285797.9504762-3.0908058 1.1257143-4.2307247 1.692381.3241971.2123809 2.7418899 1.3980952 5.0844754 1.7028571 1.2311884.1828572 2.5127652.1571429 3.7078261-.0771428 1.4241855-.2742857 3.3237333-.8761905 4.8040116-2.6447619-1.0505507.1114285-2.7371363.0590476-4.6328812-.4828572-.5400116-.1457143-1.2216811-.4161905-1.7350724-.6561905"/><path d="m12.4127559 61.8024071c-.7757913-.7276191-1.9660985-2.0438095-2.80273619-3.8828572-.24623768-.5161904-.49437681-1.0561904-.64744348-1.6123809-.54096232-.4419048-1.09048116-.892381-1.87958261-1.4466667h.00095073c-1.67802899-1.1438095-5.07021449-2.1704762-5.07021449-2.1704762s1.27777391 2.4371429 2.54508985 4.3895238c.88417391 1.4019048 2.04976232 2.5838096 3.37031884 3.4171429 1.42228406.8980952 2.93013335 1.3371429 4.48361735 1.3057143"/><path d="m28.4610829 73.6164071c-1.0410435-.1333333-2.7552-.4895238-4.4741101-1.4466667-.4934261-.2704762-.9659363-.5828571-1.4070725-.9323809-.6816696-.0371429-1.4118261-.0476191-2.3644522-.032381h.0028522c-2.2551189.0628572-4.350516.2819048-5.2708174.3904762.7463188.6876191 2.334029 1.9790476 4.5330551 2.8180952 2.0041275.7904762 4.1518145.9857143 6.0504116.5504762 1.087629-.2495238 2.0725797-.7028571 2.9301333-1.347619"/><path d="m5.51629449 27.268788c.20155363-.5457142.45349565-1.0780952.75202319-1.5809523-.0732058-.8657143-.1968-1.7133334-.29472464-2.3580953v.0009524c-.36507826-2.12-1.65331014-4.5552381-1.65331014-4.5552381s-1.19981449 2.0447619-1.70750145 4.3219048c-.64934493 2.667619-.40691015 6.4457143 2.07448116 8.8933333-.01045797-1.0504762.11123478-2.8085714.82903188-4.7219048"/><path d="m7.44132174 52.7581214c-.55617391-.9085715-1.35858551-2.4952381-1.67042319-4.4885715v.0019048c-.10267826-.56-.15496812-1.1409524-.15496812-1.7238095-.40310724-.5638095-.85755362-1.1485714-1.46886956-1.8904762v.0009524c-1.46506667-1.7257143-4.14706087-3.2533334-4.14706087-3.2533334s.46775652 2.6542858 1.12755942 4.7371429c.47155942 1.5609524 1.30249275 3.0457143 2.34068406 4.1809524 1.13421449 1.2409524 2.46903188 2.0590476 3.97307826 2.4352381"/><path d="m4.74221449 42.6017404c-.25669565-.9142857-.63033043-2.6961905-.42022029-4.7695238.05228986-.5561905.15306667-1.1180952.29947826-1.6723809-.29472463-.7942858-.63508405-1.5790477-.93075942-2.2428572l.00095073.0009524c-.93171015-2.0180952-2.99002899-4.0742857-2.99002899-4.0742857s-.41831884 2.3361905-.29947826 4.7304762c.03802899 1.1609524.26905507 2.9095238 1.15703189 4.6457143.76248116 1.4923809 1.8329971 2.6295238 3.18302608 3.3819047"/><path d="m33.3501843 69.6584071c-1.0686144-.8561905-2.4737855-1.68-3.7449043-1.9085714-.0817623 1.2438095.1597217 2.4314285.7187478 3.5314285.6227247 1.2228572 1.1769971 1.8342857 2.2323015 2.6561905.0903188.0704762.1977507.1533333.307084.2304762.1083826.0761905.2139131.1485714.3137392.2123809.2700058.1771429.5457159.3380953.8223768.48 1.0581565.5609524 2.5850203.5752381 3.5832811.5457143-.3441623-1.5285714-1.4241855-2.6857143-2.1210666-3.5990476-.6417392-.8419047-2.1115595-2.1485714-2.1115595-2.1485714"/><path d="m15.3865275 8.75497852c.0741566-.14095238.3479653-1.19428572.442087-1.63047619.2823652-1.36761905.5381101-2.66761905.5618783-3.10190477-.0893682.05333334-.1768348.10666667-.2652522.16476191-.5846957.37904762-1.5801044 1.03619048-2.3159652 2.04285714-.6189218.82476191-.9973102 1.81428572-1.1503768 2.79428572-.0598957.38285714-.0874667 1.23714287-.0627479 1.60095237.3451131-.2838095.6274783-.6142857 1.1056928-.93809523.6664579-.45142857 1.0695652-.66952381 1.684684-.93238095"/><path d="m78.6177971 17.6574547c-.3156406-.4371429-.6712116-.8504762-1.0591072-1.2295238-.1464116-.8019048-.2414841-1.5961905-.3080348-2.2019048 0 0 0 .0009524.0009507.0019048-.2006029-2.0809524-.2462377-4.02-.2566957-4.98476191.6693102.56857143 2.1258203 1.94571431 3.2172522 3.95333331.7434667 1.3542857 1.1817507 2.8371429 1.2654145 4.2857143.0884174 1.5590476-.2319768 2.9752381-.9545275 4.2142857-.2443363-.9666666-.780545-2.5390476-1.9052522-4.0390476"/><path d="m64.2877148 69.8509785c-.0922203.0914286-.179687.1761905-.2681044.2561905-.0884174.0838095-.1796869.1619048-.279513.247619-.2386319.2009524-.4877217.3895238-.7387131.5609524-1.5848579 1.0980953-3.2086956 1.5590476-4.1308985 1.7447619.0152116-.0304762.0294725-.0647619.0456348-.0980952.0627478-.1333333.1321507-.2809524.1929971-.4076191.4164174-.8742857 1.0781217-2.2085714 1.8634203-3.5895238.6293797-1.0638095 1.3348174-2.1752381 2.2246956-3.0885714.9298087-.9552381 1.9699015-1.5990476 3.1725681-1.9647619.2338783 1.1971429.1473624 2.3761905-.2557449 3.5057143-.3641275 1.02-.9963594 1.9990476-1.826342 2.8333333"/><path d="m76.3108638 49.7459309c.738713.8371429 1.218829 1.8057143 1.4279884 2.8838095.1901449.9733334.148313 2.0371429-.1178899 3.072381-.0304232.1190476-.0646493.2323809-.0941217.3295238-.0323247.1028571-.0656.2123809-.1026783.3180952-.0979246.28-.2053565.5409524-.3194435.7780953-.7605797 1.6542857-1.8805333 2.7828571-2.4357565 3.2733333-.0028522-.0342857-.0066551-.0704762-.0114087-.1095238-.0114087-.12-.0247188-.2580953-.038029-.4047619-.0836637-.9104762-.1853913-2.2885715-.1968-3.6866667.0114087-2.3390476.1673276-4.5961905 1.8881392-6.4542857"/><path d="m77.1398006 27.0348833c-.5257507-.9057143-.8052638-1.8361905-.8480464-2.8409524.1188406.0057143.2376812.0161905.3527188.0295238 2.1733566.2714286 3.3845798 1.8695238 3.9122319 2.7971429.0532406.0942857.0988754.1790476.1407073.2580952.0408811.08.082713.1657143.1254956.2590476.1064812.2304762.2006029.4647619.2795131.6952381.514342 1.512381.5324058 2.9076191.503884 3.5542857-.0218666-.0180952-.0427826-.0380952-.0656-.0571428-.0713043-.0609524-.1549681-.1342857-.2652521-.2304762-.4572986-.4009524-1.3623885-1.2114286-2.2826899-2.1409524-.6655072-.6980952-1.350029-1.4619048-1.8529623-2.3238095"/><path d="m72.9246678 16.9056452c.5190957-.1314286 1.0381913-.1657143 1.5458783-.1028572 1.3433739.1676191 2.3302261.9657143 2.9215768 1.6066667.0713043.08.1302493.1457143.1825391.2076191.0513392.0609523.1045797.1266666.1720812.2142857.1464116.1885714.2823652.3838095.404058.5838095.7881507 1.227619 1.1132985 2.5161905 1.2425971 3.2523809-.0237682-.0123809-.0503884-.0257142-.0779595-.0380952-.0865159-.0428571-.1844405-.0923809-.2890202-.1438095-.6322319-.3180953-1.5839073-.8180953-2.5251247-1.3914286-.5181449-.3314286-1.284429-.747619-2.1828638-1.7038095-.6759652-.72-1.1332637-1.5333333-1.3937623-2.4847619"/><path d="m71.9809786 63.9565023c-.058945.0952381-.1235943.192381-.1968.2990476-.1720812.2504762-.3574725.4904762-.5476174.712381-1.239745 1.4685714-2.7048116 2.3161905-3.4083479 2.667619.0057044-.0352381.010458-.0695238.0171131-.1085714.0218666-.127619.0465855-.2704762.0741565-.4247619.1663768-.9352381.4439884-2.3561905.8271304-3.8219048.3184928-1.1542857.6968812-2.3714285 1.2920348-3.4447619.6255768-1.1247619 1.4289391-1.9847619 2.4557218-2.6257142.5228985 1.0580952.7406144 2.1780952.6531478 3.3361904-.0798609 1.0428572-.4192696 2.1161905-.9820986 3.1019048-.072255.1257143-.1292985.2209524-.1844405.3085714"/><path d="m73.87216 14.6826928c-1.2330899-.7371429-1.8938435-1.547619-2.6316058-2.5266667-.8223768-1.1095238-1.4669681-2.24095235-1.667571-2.62190473.1026782.00952381.2034551.01904762.3080348.03238096.6883246.0847619 1.7350724.31047619 2.8188985.89619047.9031884.472381 1.7008464 1.1828571 2.2446609 1.9990476.6217739.9295238.8841739 1.9780953.7672348 3.0076191-.0741565-.02-.2747594-.1542857-.3413102-.1914286-.4126145-.2371429-.9488232-.4342857-1.498342-.5952381"/><path d="m80.5456765 48.1095499c-.2595478 1.6342858-.9516753 2.9009524-1.3918608 3.5742858-.010458-.0295239-.0237682-.06-.0361276-.0933334-.038029-.0980952-.0798609-.2104762-.1245449-.3295238l-.0123594-.0323809c-.2985276-.7971429-.7301566-2.0180953-1.0971363-3.3038096l.0009508.0009524c-.5770899-2.1314286-1.0020638-4.2209524.1121855-6.3447619.8680116.5847619 1.5401739 1.3485714 1.9993739 2.2752381.4183188.8457143.6474435 1.8209524.6655072 2.8228572.0019015.0942857.0009508.1933333-.0019014.3228571-.0047536.1247619-.0085565.2228571-.0142609.3133333-.0199652.28-.0532406.5457143-.0998261.7904762v.0019048z"/><path d="m68.0420313 69.1842166c.9421681-.5019048 2.4889971-1.4609524 3.7829333-3.0057143.3736348-.4371428.8718145-.9457143 1.1665392-1.4438095.6360348-.2828571 1.1408695-.5304762 2.0307478-.8514286 2.2503652-.7819047 5.6701217-.8723809 5.6701217-.8723809s-2.0345507 2.0780952-3.8124058 3.6723809c-1.0267826.9333334-2.2246956 1.6838096-3.4653913 2.1676191-1.4137275.5542857-2.8236521.7466666-4.1926956.5761905-.3974029-.0485715-.7938551-.1304762-1.1798493-.2428572"/><path d="m79.5720394 38.3936452h-.0009507l.0294725.0028571c-.4715595-.7942857-1.0334377-1.7304762-1.3538319-2.7847619-.3127884-1.0247619-.3603247-2.0038095-.1473623-2.9866666 2.4348058.7990476 3.3408463 2.8285714 3.6659942 3.98.0247188.0847619.0475362.175238.0770087.2942857.0256695.1133333.0465855.2066666.0627478.2942857.0484869.2504762.0836637.4914286.103629.72.1597217 1.6142857-.1711305 2.9580952-.3669797 3.58-.0190145-.0266667-.0418319-.0561905-.0627479-.0866667-.0656-.0866667-.137855-.1857143-.2148637-.2914286-.6978319-.9619047-1.3015421-1.8780952-1.792116-2.7219047"/><path d="m56.6463606 75.0017404c.8204753.2761905 1.6761275.5457143 2.2608232.7495238 2.7285797.9504762 3.0908058 1.1257143 4.2316753 1.692381-.3241971.2123809-2.7418898 1.3980952-5.0854261 1.7028571-1.2302376.1828572-2.5127652.1571429-3.7068753-.0771428-1.4241855-.2742857-3.3246841-.8761905-4.8049623-2.6447619 1.0515014.1114285 2.7380869.0590476 4.6328811-.4828572.5409623-.1457143 1.2216812-.4161905 1.7350725-.6561905"/><path d="m75.3266736 61.8024071c.7748406-.7276191 1.9660986-2.0438095 2.8027363-3.8828572.2462376-.5161904.4943768-1.0561904.6464927-1.6123809.5419131-.4419048 1.0914319-.892381 1.8795826-1.4466667 1.678029-1.1438095 5.0702145-2.1704762 5.0702145-2.1704762s-1.2777739 2.4371429-2.5450898 4.3895238c-.884174 1.4019048-2.0497624 2.5838096-3.3703189 3.4171429-1.422284.8980952-2.9301333 1.3371429-4.4836174 1.3057143"/><path d="m59.2779664 73.6164071c1.0410435-.1333333 2.7552-.4895238 4.4741101-1.4466667.4934261-.2704762.966887-.5828571 1.4070725-.9323809.6816696-.0371429 1.4118261-.0476191 2.3644522-.032381h-.0028522c2.2551188.0628572 4.3505159.2819048 5.2708174.3904762-.7453681.6876191-2.334029 1.9790476-4.5330551 2.8180952-2.0041275.7904762-4.1518145.9857143-6.0504116.5504762-1.087629-.2495238-2.0725797-.7028571-2.9301333-1.347619"/><path d="m82.2226597 27.268788c-.2025043-.5457142-.4534956-1.0780952-.7520232-1.5809523.0741565-.8657143.1968-1.7133334.2947247-2.3580953v.0009524c.3641275-2.12 1.6533101-4.5552381 1.6533101-4.5552381s1.1998145 2.0447619 1.7075015 4.3219048c.6493449 2.667619.4069101 6.4457143-2.0735305 8.8933333.0095073-1.0504762-.1121855-2.8085714-.8299826-4.7219048"/><path d="m80.2982029 52.7581214c.5561739-.9085715 1.3585855-2.4952381 1.6704232-4.4885715 0 .0009524-.0009507.0019048-.0009507.0019048.1036289-.56.1559188-1.1409524.1559188-1.7238095.4021565-.5638095.8566029-1.1485714 1.4688696-1.8904762v.0009524c1.4650666-1.7257143 4.1470608-3.2533334 4.1470608-3.2533334s-.4677565 2.6542858-1.1275594 4.7371429c-.4715594 1.5609524-1.3024927 3.0457143-2.340684 4.1809524-1.1342145 1.2409524-2.4699826 2.0590476-3.9730783 2.4352381"/><path d="m82.9968348 42.6017404c.2566956-.9142857.6303304-2.6961905.4202203-4.7695238-.0522899-.5561905-.1530667-1.1180952-.2994783-1.6723809.2956754-.7942858.6350841-1.5790477.9307594-2.2428572v.0009524c.9307595-2.0180952 2.990029-4.0742857 2.990029-4.0742857s.4173681 2.3361905.2985276 4.7304762c-.038029 1.1609524-.2690551 2.9095238-1.1570319 4.6457143-.7624812 1.4923809-1.8329971 2.6295238-3.1830261 3.3819047"/><path d="m54.3892452 69.6584071c1.0676638-.8561905 2.4737855-1.68 3.7449044-1.9085714.0817623 1.2438095-.1597218 2.4314285-.7196986 3.5314285-.6227246 1.2228572-1.1769971 1.8342857-2.2313507 2.6561905-.0903189.0704762-.1977507.1533333-.3070841.2304762-.1083826.0761905-.213913.1485714-.3137391.2123809-.2709565.1771429-.5457159.3380953-.8223768.48-1.0591073.5609524-2.585971.5752381-3.5832812.5457143.3441623-1.5285714 1.4232348-2.6857143 2.1210667-3.5990476.6407884-.8419047 2.1115594-2.1485714 2.1115594-2.1485714"/><path d="m72.352902 8.75497852c-.0751072-.14095238-.3479652-1.19428572-.4420869-1.63047619-.2823652-1.36761905-.5381102-2.66761905-.5618783-3.10190477.0893681.05333334.1758841.10666667.2643015.16476191.5846956.37904762 1.581055 1.03619048 2.3159652 2.04285714.6198724.82476191.9982608 1.81428572 1.1503768 2.79428572.0598956.38285714.0884174 1.23714287.0636985 1.60095237-.3460637-.2838095-.6284289-.6142857-1.1056927-.93809523-.666458-.45142857-1.0695652-.66952381-1.6846841-.93238095"/><path d="m43.5717101.62374042c-.0019014-.04857143-.0199652-.1-.0560927-.13428571-.0361275-.03333334-.0874667-.06190476-.1397565-.05714286-.1188406.01142857-.3422609.07523809-.4477913.1352381-.0294725.01523809-.0532406.03714285-.0798609.05714285-.0247188-.16666666-.1644754-.42571428-.2842667-.56095238-.1654261-.18666667-.4534956.07809524-.289971.26285714.2110609.23714286.2091594.6352381.0808116.98761905-.0779594.20571429-.169229.45238095-.2120116.66666667l-.1235942-.05809524c-.2918725-.06380952-.6426898.11142857-1.1846029.89142857-1.0648116 1.52952381-2.1429333 1.58190476-2.4832927 3.22952381-.1711305.82476191.5999072 2.39619048.0808116 3.51333333-.518145 1.11809525-1.1161508 1.69809525-.4867711 3.27714285.4325797 1.0876191 1.6951421 1.9742857 4.5397102 2.3190476l.1502145-3.2285714s-1.4384464-.127619-1.764545-.7790476c-.5656811-1.1285714.1540174-2.1009524.5846957-2.33619049.4059594-.22095238 1.322458-1.14761905 1.6285913-2.48666667.1711304-.75238095-.1977507-2.84-.1939478-3.58666667.0019014-.38380952-.2681044-.43523809-.3679305-.54761904v-.08761905c.0304232-.32285714.1549682-.43238095.2462377-.74476191.0133102-.04571428.0665508-.18571428.1112348-.25142857.0988754-.10952381.2852174-.18571428.3194435-.20095238.0408811-.01523809.2785623-.10571428.3146898-.14190476.0351769-.03333333.0598957-.08952381.0579942-.13809524"/><path d="m41.2726678 38.9561214s.4135652-.9733334 2.0678261-1.5866667c1.7692986-.6457143 6.3850667-2.1028571 7.6932638-3.4819048 2.5926261-2.3923809 2.7599536-7.3723809-2.9225276-8.9647619l.0171131 4.0666667s.1026782 1.4495238-1.0581565 1.8580952c-1.0476986.3666667-6.204429 1.7809524-8.4994783 4.0352381-2.2940985 2.2561905-2.1429333 7.2838096 2.4994551 8.7685715z"/><path d="m48.1252058 43.6596452s.1169391 1.4457143-1.5183072 1.9771428c-1.3043943.3990477-6.4535189 1.7180953-7.8948174 3.66-1.3471769 1.8142858-.9459711 5.2580953 1.4203826 6.3095238-.0541913 2.6476191-.0656 5.2352381-.1492638 8.26-.1464116 1.7190477.1112348 1.952381.3774377 1.9666667v.0342857c1.0438956.4076191 2.3692058.6628572 3.8352232.6628572 1.4089739 0 3.449229-.4904762 3.449229-.4904762v-.9152381s-2.0402551.4904762-3.449229.4904762c-1.3062957 0-2.4889971-.2104762-3.4720464-.5438095-.038029-.8171429.0047536-1.8733334.010458-2.3971429.0028521-.2171429.0057043-.4457143.0085565-.6828571l.0285217.3609523c.0190145-1.6647619.0503884-3.3285714.0950725-4.9923809.0494377-1.8009524.1140869-3.1952381.1920464-4.9961905.4592-.4561905 2.2113855-.9152381 4.1613217-1.3257143 3.4615884-1.04 4.8686609-2.0780952 5.9895652-3.3952381 2.1980754-1.9704762 1.8215884-7.14-3.1507014-8.6342857"/><path d="m48.1116104 52.869169v1.7066667s-2.7228753 2.8228571-3.362713 4.2942857c-.6407884 1.4714285-.5248 2.8066666-.2671536 2.4133333.6683594-1.0180952 1.8415536-1.7152381 2.9234782-2.6257143 1.7075015-1.4380952 3.5462029-3.3371428.7063884-5.7885714"/><path d="m48.2488951 12.4604071c-.2196174-5.63809525.0817623-7.1257143-1.1579826-7.40000001-.8670609-.19142857-1.3519305-.27809524-1.9984232-.16476191.0237681.18571429.0370782.38761905.0370782.6 0 .03333334-.0019014.06285715-.0028521.09619048.3137391-.10857143.5942029-.05047619.9279072.00190476.3859942.06.907942.12190476 1.1190029.54190476.2253217.44952381.2785623 2.84380953.3089855 3.43238096.1169391 2.27904766.1426087 4.00285716.1245449 6.28571426-.0038029.4152381-.3023304.6704762-.6693101.8333334-.9279072.4095238-5.0359884 1.7247619-7.3491015 3.2523809-4.0120579 2.7866667-2.7209739 7.8809524 1.8653218 8.6028571l.2509913-4.0971428s-.0190145-.6152381 1.2292869-1.0695238c1.6495073-.6009524 4.6376348-1.5866667 6.9830725-3.0380953 2.4709333-1.5285714 3.2704928-6.247619-1.5477797-7.8333333"/></g><g fill-rule="nonzero" transform="translate(107.488289 19.950979)"><path d="m2.21181504 12.5177177c.11839459.1186009.28522082.2291136.5004837.3315416s.50048192.1536413.85566568.1536413c.59197292 0 1.08437937-.1536397 1.47723413-.4609237.39285476-.3072841.58927919-.735858.58927919-1.2857346 0-.3989301-.12646504-.7331639-.37939893-1.0027113-.25293388-.26954733-.57313262-.5175272-.9606058-.743947-.38747319-.2264198-.80184802-.45014077-1.24313693-.67116962-.4412889-.22102885-.85566373-.48248589-1.24313692-.78437895-.38747319-.30189307-.70767192-.6603857-.9606058-1.07548867-.25293389-.41510296-.37939893-.92993073-.37939893-1.54449876 0-.52831286.09686684-.98653654.29060343-1.37468476.1937366-.38814823.46012041-.7089048.79915945-.96227934.33903904-.25337453.73996014-.44205487 1.20277534-.56604666.46281519-.1239918.96329388-.18598676 1.50145109-.18598676.65655178 0 1.26735105.04582236 1.83241611.13746847s1.07361599.23450408 1.52566804.42857819c-.01076314.21563791-.02959836.46361778-.05650622.74394705-.02690786.28032928-.06188756.55795891-.10494013.83289724-.04305258.27493833-.08879525.53369993-.1372294.77629257s-.09417683.44475014-.1372294.60647857h-.66193005l-.74265323-2.21566838c-.12915773-.06469137-.32020067-.1239909-.57313456-.17790038-.25293388-.05390948-.51393621-.08086381-.78301481-.08086381-.45205205 0-.83413793.11859907-1.14626911.35580076-.31213118.2372017-.46819443.58221717-.46819443 1.03505676 0 .40971202.12915579.75742292.38747125 1.04314315.25831546.28572022.58120494.54717726.96867812.78437895.38747319.23720169.80992026.4717044 1.26735388.70351514.45743362.23181075.87988069.49865865 1.26735388.80055172.38747318.30189306.71036266.65499483.96867812 1.0593159.25831545.40432107.38747125.90297622.38747125 1.49598052 0 1.0781895-.36325067 1.9110784-1.08976289 2.4986917-.72651223.5876133-1.79473825.8814155-3.20471012.8814155-.34442061 0-.6915268-.0215635-1.04132898-.0646911-.34980218-.0431275-.6807639-.1024271-.99289508-.1779003-.31213117-.0754733-.58927798-.1563363-.83144872-.2425915-.24217074-.0862551-.4224507-.1778999-.54084528-.2749369.01076314-.2479836.0376706-.5148315.08072318-.8005517.04305257-.2857203.08879525-.5714362.1372294-.8571564.04843414-.2857202.09955831-.557959.15337403-.8167245s.10763064-.4851819.16144636-.679256h.66193004zm15.32018126-8.89501903c-.2583155-.05390948-.5031733-.12399075-.7345809-.21024591s-.4385951-.17250903-.6215685-.25876419v-.61456495h4.1007374v.61456495c-.1291578.08625516-.2986747.17250903-.508556.25876419s-.4278317.15633643-.6538578.21024591l-3.7132661 10.23735833-1.5983189.1940731-4.16531593-10.43143143c-.21526288-.05390948-.43052253-.12129531-.64578541-.20215953-.21526289-.08086421-.40361508-.16981351-.56506224-.26685057v-.61456495h5.37616358v.61456495c-.1829735.08625516-.3874701.17250903-.6134962.25876419-.226026.08625516-.4628116.15633643-.7103639.21024591l2.2602489 6.37206819.3713267 1.52023964h.0322892l.355182-1.55258517zm11.6957112-1.08357505c-.0215263.48518528-.0591967.98653589-.1130124 1.50406686-.0538158.51753096-.1237751 1.00270897-.2098803 1.45554857h-.6619301l-.7426532-1.90838591h-3.0190468v3.96232667h1.9696455l.710364-1.24530267h.5166283c.0538157.52831287.0807232 1.11591734.0807232 1.76283105s-.0269075 1.25069078-.0807232 1.81134933h-.5166283l-.710364-1.27764819h-1.9696455v4.20491807h3.1482039l.8556657-2.0539407h.66193c.0430526.204856.0861045.4366632.1291571.6954287s.0780323.5256134.1049401.8005517c.0269079.2749384.0484339.552568.0645786.8328973s.0242169.5390909.0242169.7762926h-8.7342477v-.614565c.1829735-.0970371.3874701-.1886818.6134961-.274937.2260261-.0862551.4628117-.1509455.710364-.1940731v-9.15378323c-.2152629-.04312758-.4439763-.10512255-.686147-.18598677-.2421707-.08086421-.4547396-.17520438-.6377131-.28302333v-.61456495zm9.0625214 0h4.0038695v.61456495c-.2044997.16172843-.4305223.3045864-.6780747.42857819-.2475523.1239918-.4789564.21833196-.6942193.28302334v10.18884h-1.372294l-5.6990563-8.24810858-.6457854-1.24530266h-.0484339l.1453017 1.29382095v6.74404169c.2152629.0539095.4547393.1428588.7184363.2668506s.4870289.2506772.6700024.3800599v.614565h-3.987725v-.614565c.1937366-.1293827.4063055-.2506772.6377131-.3638871s.470884-.2075501.7184363-.2830234v-8.83032798c-.2152629-.08625516-.4305225-.18329076-.6457854-.29110971s-.4089966-.22102715-.5812069-.339628v-.59839219h3.4872413l4.6335103 6.72786895.7426532 1.39085753h.0645786l-.0807232-1.39085753v-5.40170247c-.2583155-.08625517-.5085548-.19137707-.7507255-.31536886-.2421708-.1239918-.4547397-.25606803-.6377131-.39623267zm6.9185135 9.97859408c.1183945.1186009.2852208.2291136.5004837.3315416.2152628.102428.5004819.1536413.8556656.1536413.591973 0 1.0843794-.1536397 1.4772342-.4609237.3928547-.3072841.5892792-.735858.5892792-1.2857346 0-.3989301-.1264651-.7331639-.379399-1.0027113-.2529339-.26954733-.5731326-.5175272-.9606058-.743947s-.801848-.45014077-1.2431369-.67116962-.8556637-.48248589-1.2431369-.78437895c-.3874732-.30189307-.7076719-.6603857-.9606058-1.07548867-.2529339-.41510296-.379399-.92993073-.379399-1.54449876 0-.52831286.0968669-.98653654.2906035-1.37468476.1937366-.38814823.4601204-.7089048.7991594-.96227934.3390391-.25337453.7399602-.44205487 1.2027754-.56604666.4628152-.1239918.9632939-.18598676 1.5014511-.18598676.6565517 0 1.267351.04582236 1.8324161.13746847.565065.09164611 1.073616.23450408 1.525668.42857819-.0107631.21563791-.0295984.46361778-.0565062.74394705-.0269079.28032928-.0618876.55795891-.1049401.83289724-.0430526.27493833-.0887953.53369993-.1372294.77629257-.0484342.24259264-.0941769.44475014-.1372294.60647857h-.6619301l-.7426532-2.21566838c-.1291578-.06469137-.3202007-.1239909-.5731346-.17790038s-.5139362-.08086381-.7830148-.08086381c-.452052 0-.8341379.11859907-1.1462691.35580076-.3121312.2372017-.4681944.58221717-.4681944 1.03505676 0 .40971202.1291558.75742292.3874712 1.04314315.2583155.28572022.581205.54717726.9686781.78437895.3874732.23720169.8099203.4717044 1.2673539.70351514.4574336.23181075.8798807.49865865 1.2673539.80055172.3874732.30189306.7103627.65499483.9686781 1.0593159.2583155.40432107.3874713.90297622.3874713 1.49598052 0 1.0781895-.3632507 1.9110784-1.0897629 2.4986917s-1.7947383.8814155-3.2047101.8814155c-.3444207 0-.6915268-.0215635-1.041329-.0646911-.3498022-.0431275-.6807639-.1024271-.9928951-.1779003-.3121312-.0754733-.589278-.1563363-.8314487-.2425915-.2421708-.0862551-.4224507-.1778999-.5408453-.2749369.0107631-.2479836.0376706-.5148315.0807232-.8005517.0430525-.2857203.0887952-.5714362.1372294-.8571564.0484341-.2857202.0995583-.557959.153374-.8167245s.1076306-.4851819.1614464-.679256h.66193zm13.0518606-9.97859408h4.3267623v.61456495c-.1829735.11860085-.3928517.21833188-.6296408.2991961-.2367892.08086421-.4520488.13746831-.6457854.169814l-3.0674808 3.89763562c.2475524.34502064.5381529.73585848.8718104 1.17252523.3336574.43666676.6888358.88949956 1.0655459 1.35851198.37671.4690125.7641774.9434087 1.1624137 1.4232031.3982364.4797943.7857037.9353225 1.1624138 1.3665984l.7749425.46901v.549874h-2.8091666l-.6457854-.4528374c-.2583154-.3234568-.5300808-.6819495-.8153041-1.0754886-.2852233-.3935392-.5677516-.8032451-.8475933-1.22913-.2798418-.4258848-.5542978-.8544587-.8233764-1.28573452-.2690786-.43127581-.5220087-.85176342-.7587979-1.26147543h-.6942193v4.22109085c.2367891.0431276.4520488.107818.6457854.1940731.1937366.0862552.3605628.1778999.5004837.274937v.614565h-4.8918245v-.614565c.2152629-.107819.435904-.2021591.66193-.2830233.2260261-.0808642.4466672-.1428592.6619301-.1859868v-9.15378323c-.2475523-.03234569-.4870287-.09164522-.7184363-.17790038-.2314076-.08625517-.4332135-.18329077-.6054238-.29110972v-.61456495h4.8918245v.61456495c-.1399209.08625516-.3094379.17250903-.508556.25876419-.1991182.08625516-.4116871.15633643-.6377131.21024591v4.10788152l.9525335-.22641867 2.5992863-3.88146285c-.2152629-.04312758-.4278318-.11051342-.6377131-.20215953s-.3901613-.18059541-.5408453-.26685057zm8.4328792 11.32093338h-3.9877249v-.614565c.1722103-.107819.3578717-.2021591.5569899-.2830233s.3955426-.1428592.5892792-.1859868l4.1653159-10.43143142h1.194703l4.0523035 10.43143142c.2152629.0431276.4305225.1051226.6457854.1859868s.4036151.1752043.5650623.2830233v.614565h-5.0532709v-.614565c.2044997-.0970371.4251409-.1886818.66193-.274937.2367892-.0862551.4628118-.1509455.6780747-.1940731l-.9363888-2.5714691h-3.5841091l-.9525335 2.5714691c.4951047.0646914.9632944.2210265 1.4045833.4690101zm-.0645785-4.70627376h2.8576004l-1.0494013-3.08899753-.306748-1.39085752h-.0322893l-.355182 1.42320305zm14.854139 3.36393446c.1183946.1186009.2852208.2291136.5004837.3315416s.5004819.1536413.8556657.1536413c.5919729 0 1.0843794-.1536397 1.4772341-.4609237.3928548-.3072841.5892792-.735858.5892792-1.2857346 0-.3989301-.126465-.7331639-.3793989-1.0027113-.2529339-.26954733-.5731326-.5175272-.9606058-.743947s-.801848-.45014077-1.2431369-.67116962-.8556638-.48248589-1.243137-.78437895c-.3874732-.30189307-.7076719-.6603857-.9606058-1.07548867-.2529339-.41510296-.3793989-.92993073-.3793989-1.54449876 0-.52831286.0968668-.98653654.2906034-1.37468476.1937366-.38814823.4601204-.7089048.7991595-.96227934.339039-.25337453.7399601-.44205487 1.2027753-.56604666.4628152-.1239918.9632939-.18598676 1.5014511-.18598676.6565518 0 1.2673511.04582236 1.8324161.13746847.5650651.09164611 1.073616.23450408 1.5256681.42857819-.0107632.21563791-.0295984.46361778-.0565063.74394705-.0269078.28032928-.0618875.55795891-.1049401.83289724s-.0887952.53369993-.1372294.77629257c-.0484341.24259264-.0941768.44475014-.1372294.60647857h-.66193l-.7426533-2.21566838c-.1291577-.06469137-.3202006-.1239909-.5731345-.17790038s-.5139362-.08086381-.7830148-.08086381c-.4520521 0-.834138.11859907-1.1462691.35580076-.3121312.2372017-.4681945.58221717-.4681945 1.03505676 0 .40971202.1291558.75742292.3874713 1.04314315.2583154.28572022.5812049.54717726.9686781.78437895s.8099203.4717044 1.2673539.70351514c.4574336.23181075.8798807.49865865 1.2673538.80055172.3874732.30189306.7103627.65499483.9686782 1.0593159.2583154.40432107.3874712.90297622.3874712 1.49598052 0 1.0781895-.3632506 1.9110784-1.0897629 2.4986917-.7265122.5876133-1.7947382.8814155-3.2047101.8814155-.3444206 0-.6915268-.0215635-1.041329-.0646911-.3498022-.0431275-.6807639-.1024271-.992895-.1779003-.3121312-.0754733-.589278-.1563363-.8314488-.2425915-.2421707-.0862551-.4224507-.1778999-.5408452-.2749369.0107631-.2479836.0376706-.5148315.0807231-.8005517.0430526-.2857203.0887953-.5714362.1372294-.8571564.0484342-.2857202.0995583-.557959.1533741-.8167245.0538157-.2587655.1076306-.4851819.1614463-.679256h.6619301zm10.0441141 1.3423393h-3.9877249v-.614565c.1722103-.107819.3578718-.2021591.5569899-.2830233.1991182-.0808642.3955426-.1428592.5892792-.1859868l4.1653159-10.43143142h1.194703l4.0523035 10.43143142c.2152629.0431276.4305226.1051226.6457854.1859868.2152629.0808642.4036151.1752043.5650623.2830233v.614565h-5.0532709v-.614565c.2044997-.0970371.4251409-.1886818.6619301-.274937.2367891-.0862551.4628118-.1509455.6780746-.1940731l-.9363888-2.5714691h-3.5841091l-.9525334 2.5714691c.4951046.0646914.9632943.2210265 1.4045832.4690101zm-.0645785-4.70627376h2.8576005l-1.0494013-3.08899753-.3067481-1.39085752h-.0322893l-.355182 1.42320305zm-1.2915708-8.11872648c0-.34502064.1237743-.60378225.3713266-.77629257s.5596788-.25876419.9363888-.25876419c.3767101 0 .6888366.08625387.9363889.25876419s.3713266.43127193.3713266.77629257c0 .30189307-.1237743.53639577-.3713266.70351514-.2475523.16711938-.5596788.25067781-.9363889.25067781-.37671 0-.6888365-.08355843-.9363888-.25067781-.2475523-.16711937-.3713266-.40162207-.3713266-.70351514zm3.9554356 0c0-.34502064.1264651-.60378225.379399-.77629257.2529338-.17251032.5677511-.25876419.9444611-.25876419.3767101 0 .6888366.08625387.9363889.25876419s.3713266.43127193.3713266.77629257c0 .30189307-.1237743.53639577-.3713266.70351514-.2475523.16711938-.5596788.25067781-.9363889.25067781-.37671 0-.6915273-.08355843-.9444611-.25067781-.2529339-.16711937-.379399-.40162207-.379399-.70351514zm5.5623642 1.50406686h5.2954407v.61456495c-.226026.11860085-.476266.21833188-.750726.2991961-.27446.08086421-.540844.13746831-.799159.169814v9.18612873h3.115914l1.081691-2.89492435h.66193c.043052.24798355.083414.53909035.121085.87332915.037671.3342387.067269.6846451.088795 1.0512295.021526.3665845.037671.7277725.048434 1.0835751.010763.3558025.010763.6684728 0 .9380202h-8.8634047v-.614565c.2475523-.1293827.4816467-.2318092.7022917-.3072825.220644-.0754732.427832-.1293819.621568-.1617276v-9.15378323c-.527394-.08625516-.968676-.2425903-1.3238597-.4690101zm9.4693657 0h5.295441v.61456495c-.226026.11860085-.476266.21833188-.750726.2991961-.27446.08086421-.540844.13746831-.799159.169814v9.18612873h3.115914l1.081691-2.89492435h.66193c.043052.24798355.083414.53909035.121085.87332915.037671.3342387.067269.6846451.088795 1.0512295.021526.3665845.037671.7277725.048434 1.0835751.010763.3558025.010763.6684728 0 .9380202h-8.863405v-.614565c.247552-.1293827.481647-.2318092.702292-.3072825.220644-.0754732.427832-.1293819.621568-.1617276v-9.15378323c-.527394-.08625516-.968676-.2425903-1.32386-.4690101zm11.681181 9.97859408c.118395.1186009.285221.2291136.500484.3315416s.500482.1536413.855665.1536413c.591973 0 1.08438-.1536397 1.477235-.4609237.392854-.3072841.589279-.735858.589279-1.2857346 0-.3989301-.126465-.7331639-.379399-1.0027113-.252934-.26954733-.573133-.5175272-.960606-.743947s-.801848-.45014077-1.243137-.67116962-.855664-.48248589-1.243137-.78437895c-.387473-.30189307-.707672-.6603857-.960606-1.07548867-.252933-.41510296-.379399-.92993073-.379399-1.54449876 0-.52831286.096867-.98653654.290604-1.37468476.193737-.38814823.46012-.7089048.799159-.96227934.339039-.25337453.739961-.44205487 1.202776-.56604666.462815-.1239918.963294-.18598676 1.501451-.18598676.656552 0 1.267351.04582236 1.832416.13746847s1.073616.23450408 1.525668.42857819c-.010763.21563791-.029598.46361778-.056506.74394705-.026908.28032928-.061888.55795891-.10494.83289724-.043053.27493833-.088796.53369993-.13723.77629257s-.094177.44475014-.137229.60647857h-.66193l-.742653-2.21566838c-.129158-.06469137-.320201-.1239909-.573135-.17790038s-.513936-.08086381-.783015-.08086381c-.452052 0-.834138.11859907-1.146269.35580076-.312131.2372017-.468194.58221717-.468194 1.03505676 0 .40971202.129155.75742292.387471 1.04314315.258315.28572022.581205.54717726.968678.78437895s.80992.4717044 1.267354.70351514c.457433.23181075.879881.49865865 1.267354.80055172.387473.30189306.710362.65499483.968678 1.0593159.258315.40432107.387471.90297622.387471 1.49598052 0 1.0781895-.363251 1.9110784-1.089763 2.4986917s-1.794738.8814155-3.20471.8814155c-.344421 0-.691527-.0215635-1.041329-.0646911-.349802-.0431275-.680764-.1024271-.992895-.1779003-.312131-.0754733-.589278-.1563363-.831449-.2425915-.24217-.0862551-.42245-.1778999-.540845-.2749369.010763-.2479836.037671-.5148315.080723-.8005517.043053-.2857203.088795-.5714362.13723-.8571564.048434-.2857202.099558-.557959.153374-.8167245.053815-.2587655.10763-.4851819.161446-.679256h.66193zm12.972752-9.97859408h4.326762v.61456495c-.182973.11860085-.392851.21833188-.629641.2991961-.236789.08086421-.452048.13746831-.645785.169814l-3.067481 3.89763562c.247553.34502064.538153.73585848.871811 1.17252523.333657.43666676.688835.88949956 1.065545 1.35851198.376711.4690125.764178.9434087 1.162414 1.4232031.398237.4797943.785704.9353225 1.162414 1.3665984l.774942.46901v.549874h-2.809166l-.645786-.4528374c-.258315-.3234568-.53008-.6819495-.815304-1.0754886-.285223-.3935392-.567751-.8032451-.847593-1.22913-.279842-.4258848-.554298-.8544587-.823376-1.28573452-.269079-.43127581-.522009-.85176342-.758798-1.26147543h-.69422v4.22109085c.23679.0431276.452049.107818.645786.1940731.193736.0862552.360563.1778999.500484.274937v.614565h-4.891825v-.614565c.215263-.107819.435904-.2021591.66193-.2830233s.446667-.1428592.66193-.1859868v-9.15378323c-.247552-.03234569-.487029-.09164522-.718436-.17790038-.231408-.08625517-.433214-.18329077-.605424-.29110972v-.61456495h4.891825v.61456495c-.139921.08625516-.309438.17250903-.508556.25876419-.199119.08625516-.411688.15633643-.637714.21024591v4.10788152l.952534-.22641867 2.599286-3.88146285c-.215263-.04312758-.427832-.11051342-.637713-.20215953s-.390161-.18059541-.540845-.26685057zm8.749314 11.32093338h-3.987724v-.614565c.17221-.107819.357871-.2021591.556989-.2830233.199119-.0808642.395543-.1428592.58928-.1859868l4.165316-10.43143142h1.194703l4.052303 10.43143142c.215263.0431276.430523.1051226.645785.1859868.215263.0808642.403616.1752043.565063.2830233v.614565h-5.053271v-.614565c.2045-.0970371.425141-.1886818.66193-.274937.236789-.0862551.462812-.1509455.678075-.1940731l-.936389-2.5714691h-3.584109l-.952534 2.5714691c.495105.0646914.963295.2210265 1.404583.4690101zm-.064578-4.70627376h2.8576l-1.049401-3.08899753-.306748-1.39085752h-.032289l-.355182 1.42320305zm11.655349 3.62269866c.290605.0431276.578515.1051226.863738.1859868s.540844.1752043.76687.2830233v.614565h-5.376163v-.614565c.204499-.1186008.42245-.2156364.653857-.2911097.231408-.0754733.45474-.1347728.670003-.1779004v-9.15378323c-.247553-.04312758-.484338-.10512255-.710364-.18598677-.226026-.08086421-.430523-.17520438-.613496-.28302333v-.61456495h2.034224c.430525 0 .922932-.02156347 1.477234-.06469105s1.062853-.06469105 1.525668-.06469105c.570446 0 1.127431.0566041 1.67097.169814.543538.1132099 1.027873.30458567 1.453017.57413305s.766869.62804002 1.025184 1.07548867c.258316.44744865.387471 1.00540335.387471 1.67388086 0 .63613181-.126465 1.18600022-.379399 1.64962171s-.589277.84637303-1.009039 1.14826609c-.419763.30189307-.904097.52561404-1.453018.67116962-.54892.14555559-1.113976.21833229-1.695186.21833229h-.258314c-.118395 0-.24486-.00269543-.379399-.00808638-.13454-.00539095-.263695-.01078182-.387472-.01617276-.123776-.00539095-.21257-.01347725-.266386-.02425915zm.87181-9.31551085c-.215263 0-.38478.0080863-.508556.02425914s-.244859.04043174-.363254.07277743v4.91651962c.096868.03234568.242168.05121372.435905.05660466.193737.00539095.3498.00808639.468195.00808639.290604 0 .570442-.0485178.839521-.14555486.269078-.09703706.508555-.24798133.718436-.45283733.209881-.20485601.379398-.46900848.508556-.79246534.129158-.32345685.193735-.71159926.193735-1.16443886 0-.86255161-.209878-1.49867388-.62964-1.9083859-.419763-.40971202-.974057-.61456495-1.662898-.61456495zm14.264323-.92184743c-.021526.48518528-.059197.98653589-.113013 1.50406686-.053815.51753096-.123775 1.00270897-.20988 1.45554857h-.66193l-.742653-1.90838591h-3.019047v3.96232667h1.969646l.710364-1.24530267h.516628c.053816.52831287.080723 1.11591734.080723 1.76283105s-.026907 1.25069078-.080723 1.81134933h-.516628l-.710364-1.27764819h-1.969646v4.20491807h3.148204l.855666-2.0539407h.66193c.043052.204856.086104.4366632.129157.6954287.043052.2587655.078032.5256134.10494.8005517.026908.2749384.048434.552568.064578.8328973.016145.2803293.024217.5390909.024217.7762926h-8.734247v-.614565c.182973-.0970371.38747-.1886818.613496-.274937.226026-.0862551.462811-.1509455.710364-.1940731v-9.15378323c-.215263-.04312758-.443977-.10512255-.686147-.18598677-.242171-.08086421-.45474-.17520438-.637713-.28302333v-.61456495zm9.146473 11.32093338h-5.553755v-.614565c.215263-.0862552.460121-.1752045.734581-.2668506.274461-.0916461.551607-.1590319.831449-.2021595v-9.18612876h-1.872778l-1.033256 2.76554229h-.66193c-.043053-.21563791-.086105-.49057211-.129157-.82481086-.043053-.33423875-.080723-.67925422-.113013-1.03505676-.032289-.35580254-.059197-.70890431-.080723-1.05931591-.021526-.35041159-.032289-.64960469-.032289-.89758828h10.267988c0 .25876548-.010763.56065402-.032289.90567467-.021527.34502064-.048434.69542698-.080724 1.05122952-.032289.35580254-.06996.69812258-.113012 1.02697038-.043053.3288478-.086105.60647744-.129157.83289724h-.66193l-1.033257-2.76554229h-1.872778v9.18612876c.279842.0539095.556989.1185999.831449.1940731.27446.0754733.519318.167118.734581.274937zm11.928733-1.0835751c.495104.0646914.963294.2210265 1.404583.4690101v.614565h-4.988692v-.614565c.17221-.0970371.355181-.1859864.548917-.2668506.193737-.0808642.398234-.14825.613496-.2021595v-9.15378323c-.247552-.05390948-.465502-.12399075-.653857-.21024591s-.357872-.17250903-.508556-.25876419v-.61456495h8.443644c0 .2156379-.010763.45014061-.032289.70351514-.021527.25337454-.045743.51213614-.072651.77629257-.026908.26415644-.059197.52291804-.096868.77629257-.037671.25337454-.078032.48787724-.121085.70351515h-.66193l-.742653-1.90838591h-3.132059v4.25343638h2.308683l.62964-1.11592057h.500484c.075342.54987666.107631 1.11591766.096868 1.69814s-.043052 1.11591815-.096868 1.60110345h-.500484l-.62964-1.13209335h-2.308683zm5.90463-4.57689161c0-.84098783.118393-1.61996807.355182-2.3369641s.586586-1.3369457 1.049401-1.85986762c.462815-.52292191 1.033253-.92993235 1.711332-1.22104352.678078-.29111117 1.458394-.43666457 2.340972-.43666457.882577 0 1.662894.1455534 2.340972.43666457s1.245825.69812161 1.703259 1.22104352c.457433.52292192.80454 1.14287159 1.041329 1.85986762s.355182 1.49597627.355182 2.3369641c0 .84098782-.118393 1.61996806-.355182 2.33696411-.236789.716996-.583896 1.3369457-1.041329 1.8598676-.457434.5229219-1.025181.9299324-1.703259 1.2210435-.678078.2911112-1.458395.4366646-2.340972.4366646-.882578 0-1.662894-.1455534-2.340972-.4366646-.678079-.2911111-1.248517-.6981216-1.711332-1.2210435s-.812612-1.1428716-1.049401-1.8598676c-.236789-.71699605-.355182-1.49597629-.355182-2.33696411zm2.744588 0c0 .69004129.053815 1.32885899.161446 1.91647231.107632.5876133.277149 1.0943547.508556 1.5202396.231408.4258849.52739.7601186.887955 1.0027112.360566.2425927.793776.3638872 1.299643.3638872.462816 0 .855664-.1212945 1.178559-.3638872.322894-.2425926.586587-.5768263.791087-1.0027112s.352491-.9326263.443977-1.5202396c.091487-.58761332.13723-1.22643102.13723-1.91647231 0-.6900413-.051124-1.328859-.153374-1.91647229s-.263695-1.09435476-.484339-1.52023962c-.220645-.42588486-.511245-.7601186-.871811-1.00271124-.360565-.24259264-.799157-.36388714-1.315787-.36388714-.495105 0-.90948.1212945-1.243137.36388714-.333658.24259264-.600042.57682638-.79916 1.00271124s-.339037.93262633-.41976 1.52023962c-.080724.58761329-.121085 1.22643099-.121085 1.91647229zm-.581207-7.16453353c0-.34502064.123774-.60378225.371327-.77629257.247552-.17251032.559678-.25876419.936388-.25876419.376711 0 .688837.08625387.936389.25876419.247553.17251032.371327.43127193.371327.77629257 0 .30189307-.123774.53639577-.371327.70351514-.247552.16711938-.559678.25067781-.936389.25067781-.37671 0-.688836-.08355843-.936388-.25067781-.247553-.16711937-.371327-.40162207-.371327-.70351514zm3.955436 0c0-.34502064.126465-.60378225.379399-.77629257s.567751-.25876419.944461-.25876419.688836.08625387.936389.25876419c.247552.17251032.371326.43127193.371326.77629257 0 .30189307-.123774.53639577-.371326.70351514-.247553.16711938-.559679.25067781-.936389.25067781s-.691527-.08355843-.944461-.25067781c-.252934-.16711937-.379399-.40162207-.379399-.70351514zm9.312762 11.74142514c.247553.0539095.468194.1239907.66193.2102459.193737.0862552.382089.172509.565063.2587642v.614565h-4.972548v-.614565c.236789-.1293827.462812-.2291138.678074-.2991961.215263-.0700823.430523-.1266864.645786-.169814v-9.15378323c-.538157-.11860085-.97944-.27493599-1.32386-.4690101v-.61456495h1.711331c.215263 0 .460121-.00539087.734581-.01617276.27446-.0107819.56237-.02425906.863738-.04043191.301368-.01617284.608113-.03234544.920244-.04851828.312131-.01617285.613495-.02425915.9041-.02425915.591973 0 1.138194.06738584 1.63868.20215953.500487.13477369.931006.33693119 1.291571.60647857.360566.26954738.640403.60647655.839521 1.01079762s.298676.87602191.298676 1.41511666c0 .77629646-.188352 1.41241873-.565062 1.90838591s-.893333.86793698-1.549885 1.11592057c.430526.6792594.887952 1.37198582 1.372294 2.07819992.484341.7062141.995583 1.3881588 1.53374 2.0458544l.774943.5175283v.549874h-2.696155l-.694219-.5337012c-.495104-.5930042-.933696-1.2803397-1.315788-2.0620271-.382091-.7816874-.718434-1.54988594-1.009039-2.3046186h-1.307716zm.807232-9.31551085c-.333657 0-.602732.0323452-.807232.09703657v4.51220057h.952534c.54892 0 1.01711-.19676664 1.404583-.59030581s.581207-.97844821.581207-1.75474467c0-.39893012-.053815-.74125015-.161446-1.02697038-.107632-.28572022-.258314-.52022292-.45205-.70351514-.193737-.18329222-.41976-.31806389-.678075-.40431905s-.538153-.12938209-.839521-.12938209z" fill="#1d1d1b"/><path d="m14.3525808 33.3519617h-4.82724594v-.6145649c.21526288-.107819.42514105-.1994637.62964074-.274937.2044998-.0754733.4251409-.1401637.6619301-.1940731v-6.7602145l.0807232-1.8922132h-.1291571l-.532773 1.7304856-3.11591461 8.0055171h-.74265322l-3.09976999-7.9408261-.58120687-1.8922131h-.14530172l.01614463 2.0539407v6.6308324c.20449974.0431276.43052237.1132089.67807469.2102459.24755231.0970371.47895644.2048544.69421932.3234553v.6145649h-3.93929103v-.6145649c.17221031-.0862552.38477921-.1886817.6377131-.3072825.25293388-.1186009.49241025-.1994639.71843627-.2425914v-9.0729195c-.21526288-.0431276-.44397626-.1024271-.686147-.1779004-.24217074-.0754732-.45473965-.1725088-.6377131-.2911097v-.6145649h4.37519618l2.47012921 6.5823141.46819443 1.5525851h.01614464l.48433906-1.5849306 2.51856311-6.5499686h4.0038696v.6145649c-.1829735.107819-.3793979.2021592-.5892792.2830234s-.4224502.1428591-.6377131.1859867v9.169956c.226026.0431276.4439764.107818.6538577.1940732.2098813.0862551.3955428.172509.5569899.2587642zm9.6187035-11.3209333c-.0215263.4851853-.0591968.9865359-.1130125 1.5040668-.0538157.517531-.1237751 1.002709-.2098802 1.4555486h-.6619301l-.7426532-1.9083859h-3.0190468v3.9623267h1.9696455l.7103639-1.2453027h.5166284c.0538157.5283129.0807232 1.1159173.0807232 1.7628311 0 .6469137-.0269075 1.2506907-.0807232 1.8113493h-.5166284l-.7103639-1.2776482h-1.9696455v4.2049181h3.1482039l.8556656-2.0539408h.6619301c.0430526.204856.0861045.4366633.1291571.6954288s.0780323.5256134.1049401.8005517c.0269079.2749383.0484338.552568.0645786.8328972.0161447.2803293.0242169.5390909.0242169.7762926h-8.7342477v-.6145649c.1829734-.0970371.3874701-.1886818.6134961-.274937s.4628117-.1509456.710364-.1940731v-9.1537833c-.2152629-.0431276-.4439763-.1051225-.686147-.1859867-.2421708-.0808642-.4547397-.1752044-.6377131-.2830234v-.6145649zm1.4793857 11.3209333v-.6145649c.1829734-.107819.3874701-.2021592.6134961-.2830234.2260261-.0808642.4628117-.1428592.710364-.1859867v-9.1537833c-.2475523-.0539094-.4870287-.1212953-.7184363-.2021595s-.4332135-.1698135-.6054238-.2668506v-.6145649h1.8727777c.1829734 0 .4089961-.0053909.6780747-.0161728s.5489161-.024259.839521-.0404319c.2906049-.0161728.5731332-.0323454.8475934-.0485183.2744602-.0161728.508555-.0242591.7022916-.0242591.9363936 0 1.7732154.1239899 2.5104908.3719735s1.3615284.6091717 1.8727777 1.0835751c.5112494.4744033.9040982 1.0620078 1.1785584 1.762831s.4116882 1.5094532.4116882 2.4259143c0 .8948973-.1291558 1.7089182-.3874712 2.442087-.2583155.7331689-.6457829 1.3585095-1.1624138 1.8760404-.5166309.517531-1.1704821.9191506-1.9615732 1.2048708s-1.7193983.4285782-2.7849496.4285782c-.1399209 0-.3282731-.0080863-.5650622-.0242592-.2367892-.0161728-.4897193-.0323454-.7587979-.0485183l-.8072318-.0485182c-.2690786-.0161729-.5058642-.0242592-.7103639-.0242592zm4.7303782-10.3990859c-.1937366 0-.3874703.0053909-.5812069.0161728s-.3605628.0269545-.5004837.0485183v9.3640291c.0430526.0107819.1183934.0188682.2260249.0242591.1076314.005391.217952.0107819.330965.0161728.113013.005391.2233336.0107818.330965.0161728.1076315.0053909.1883538.0080863.2421696.0080863.6242623 0 1.1543392-.1293808 1.5902465-.3881462.4359074-.2587655.7937766-.6091719 1.0736183-1.0512296s.4843384-.9595809.6134961-1.5525851c.1291578-.5930042.1937357-1.2237356.1937357-1.8922131 0-.5930043-.0672687-1.1644362-.201808-1.7143128-.1345393-.5498767-.3417267-1.0404455-.6215684-1.4717213-.2798418-.4312759-.6430924-.7762913-1.0897629-1.0350568s-.9821289-.3881463-1.6063912-.3881463zm12.4076895 10.3990859h-5.0371262v-.6145649c.4305257-.2372017.8664265-.3935369 1.3077154-.4690101v-9.1537833c-.2152629-.0323457-.4412855-.0916452-.6780747-.1779004-.2367891-.0862551-.4466673-.1832907-.6296407-.2911097v-.6145649h5.0371262v.6145649c-.1937366.1186009-.4063055.2183319-.6377131.2991961s-.4547395.1374683-.6700024.169814v9.1537833c.2152629.0431275.4385948.1024271.6700024.1779003.2314076.0754733.4439765.1725089.6377131.2911098zm9.2594856-3.39628h.6619301c.0430525.1725103.0834137.3800587.1210847.6226513.037671.2425927.06996.5013543.0968679.7762926.0269078.2749383.045743.5471771.0565062.8167245.0107631.2695474.0161446.5121364.0161446.7277743-.37671.2372017-.8475905.4043185-1.4126556.5013556-.565065.0970371-1.1435754.1455549-1.7355483.1455549-.8933409 0-1.7032554-.1105128-2.4297676-.3315417-.7265122-.2210288-1.3453837-.5714352-1.8566331-1.0512295-.5112493-.4797943-.9067889-1.0889623-1.1866307-1.8275221-.2798417-.7385598-.4197605-1.6253574-.4197605-2.6604193 0-1.0242801.1533725-1.9056868.4601221-2.6442466s.7184337-1.3450323 1.2350646-1.8194357 1.1166672-.8221143 1.8001269-1.0431431c.6834596-.2210289 1.4018887-.3315417 2.1553088-.3315417.7103675 0 1.3534557.0512133 1.9292839.1536413s1.0467087.2398951 1.4126556.4124054c0 .1725103-.0080722.3935359-.0242169.6630832-.0161448.2695474-.0430522.5525679-.0807232.84907-.037671.2965022-.080723.587609-.1291571.8733292-.0484342.2857202-.0941768.5256138-.1372294.7196879h-.6780747l-.8879549-2.4420871c-.0968683-.0539094-.2529316-.0970364-.4681945-.1293821-.2152628-.0323456-.435904-.0485182-.66193-.0485182-.4412889 0-.8556638.0889493-1.2431369.2668505-.3874732.1779013-.7318887.4609218-1.0332567.84907-.301368.3881483-.5381537.8868034-.710364 1.4959805s-.2583141 1.3396395-.2583141 2.1914092c0 1.5418111.306745 2.7278017.9202442 3.5580077.6134992.8302059 1.4476304 1.2453026 2.5024185 1.2453026.301368 0 .5569888-.0242589.7668702-.0727774.2098813-.0485185.3524908-.1159044.4278328-.2021595zm7.386708 3.39628h-5.0371263v-.6145649c.4305258-.2372017.8664266-.3935369 1.3077155-.4690101v-9.1537833c-.2152629-.0323457-.4412855-.0916452-.6780747-.1779004-.2367892-.0862551-.4466673-.1832907-.6296408-.2911097v-.6145649h5.0371263v.6145649c-.1937366.1186009-.4063055.2183319-.6377131.2991961s-.4547395.1374683-.6700024.169814v9.1537833c.2152629.0431275.4385948.1024271.6700024.1779003.2314076.0754733.4439765.1725089.6377131.2911098zm8.6968448-11.3209333h4.0038696v.6145649c-.2044997.1617285-.4305224.3045864-.6780747.4285782s-.4789564.218332-.6942193.2830234v10.18884h-1.372294l-5.6990563-8.2481086-.6457854-1.2453027h-.0484339l.1453017 1.293821v6.7440417c.2152629.0539095.4547393.1428588.7184363.2668506s.4870289.2506771.6700024.3800599v.6145649h-3.987725v-.6145649c.1937366-.1293828.4063055-.2506773.6377131-.3638872s.470884-.20755.7184363-.2830233v-8.830328c-.2152629-.0862552-.4305225-.1832908-.6457854-.2911097-.2152629-.107819-.4089966-.2210272-.5812069-.339628v-.5983922h3.4872412l4.6335104 6.7278689.7426532 1.3908576h.0645786l-.0807232-1.3908576v-5.4017024c-.2583155-.0862552-.5085548-.1913771-.7507256-.3153689-.2421707-.1239918-.4547396-.256068-.6377131-.3962327zm6.9185136 9.9785941c.1183945.1186008.2852208.2291136.5004837.3315416.2152628.102428.5004819.1536412.8556656.1536412.5919729 0 1.0843794-.1536397 1.4772342-.4609237.3928547-.307284.5892792-.7358579.5892792-1.2857346 0-.3989301-.1264651-.7331638-.379399-1.0027112s-.5731326-.5175272-.9606058-.743947-.801848-.4501408-1.2431369-.6711697c-.4412889-.2210288-.8556637-.4824858-1.2431369-.7843789s-.7076719-.6603857-.9606058-1.0754887c-.2529339-.4151029-.379399-.9299307-.379399-1.5444987 0-.5283129.0968669-.9865366.2906035-1.3746848s.4601204-.7089048.7991594-.9622793c.3390391-.2533746.7399602-.4420549 1.2027754-.5660467s.9632938-.1859868 1.501451-.1859868c.6565518 0 1.2673511.0458224 1.8324162.1374685.565065.0916461 1.073616.2345041 1.525668.4285782-.0107631.2156379-.0295984.4636178-.0565062.7439471-.0269079.2803292-.0618876.5579589-.1049402.8328972-.0430525.2749383-.0887952.5336999-.1372294.7762926-.0484341.2425926-.0941768.4447501-.1372294.6064785h-.66193l-.7426532-2.2156683c-.1291578-.0646914-.3202007-.123991-.5731346-.1779004-.2529339-.0539095-.5139362-.0808638-.7830148-.0808638-.4520521 0-.8341379.118599-1.1462691.3558007s-.4681944.5822172-.4681944 1.0350568c0 .409712.1291558.7574229.3874712 1.0431431.2583155.2857203.5812049.5471773.9686781.784379s.8099203.4717044 1.2673539.7035151c.4574336.2318108.8798807.4986587 1.2673539.8005517.3874732.3018931.7103627.6549949.9686781 1.0593159.2583155.4043211.3874713.9029763.3874713 1.4959805 0 1.0781895-.3632507 1.9110784-1.0897629 2.4986917-.7265123.5876133-1.7947383.8814156-3.2047101.8814156-.3444207 0-.6915268-.0215635-1.041329-.0646911s-.6807639-.1024271-.9928951-.1779004c-.3121312-.0754732-.589278-.1563362-.8314487-.2425914-.2421708-.0862552-.4224507-.1778999-.5408453-.274937.0107631-.2479835.0376706-.5148314.0807232-.8005517.0430525-.2857202.0887952-.5714361.1372294-.8571563.0484341-.2857203.0995583-.557959.153374-.8167245s.1076306-.4851819.1614464-.679256h.66193zm12.9727517-9.9785941h4.3267623v.6145649c-.1829734.1186009-.3928516.2183319-.6296408.2991961-.2367891.0808642-.4520488.1374683-.6457854.169814l-3.0674807 3.8976356c.2475523.3450207.5381528.7358585.8718103 1.1725253.3336575.4366667.6888359.8894995 1.0655459 1.358512.3767101.4690124.7641774.9434087 1.1624138 1.423203.3982363.4797944.7857037.9353226 1.1624137 1.3665984l.7749425.4690101v.5498739h-2.8091665l-.6457854-.4528373c-.2583155-.3234569-.5300808-.6819495-.8153041-1.0754887s-.5677516-.803245-.8475934-1.2291299c-.2798417-.4258849-.5542978-.8544588-.8233764-1.2857346s-.5220087-.8517634-.7587979-1.2614754h-.6942193v4.2210909c.2367892.0431275.4520488.1078179.6457854.1940731s.3605629.1778999.5004837.274937v.6145649h-4.8918245v-.6145649c.2152629-.107819.435904-.2021592.6619301-.2830234.226026-.0808642.4466671-.1428592.66193-.1859867v-9.1537833c-.2475523-.0323457-.4870287-.0916452-.7184363-.1779004-.2314075-.0862551-.4332135-.1832907-.6054238-.2911097v-.6145649h4.8918245v.6145649c-.1399208.0862552-.3094378.1725091-.508556.2587642-.1991181.0862552-.411687.1563365-.6377131.2102459v4.1078816l.9525335-.2264187 2.5992863-3.8814629c-.2152629-.0431276-.4278318-.1105134-.6377131-.2021595s-.3901613-.1805954-.5408453-.2668506zm13.4011216 10.2373583c.495105.0646913.963295.2210265 1.404584.4690101v.6145649h-4.9886928v-.6145649c.1722103-.0970371.355181-.1859864.5489176-.2668506s.3982333-.1482501.6134962-.2021595v-9.1537833c-.2475523-.0539094-.4655027-.1239907-.6538578-.2102459-.188355-.0862551-.357872-.172509-.508556-.2587642v-.6145649h8.4436448c0 .2156379-.010763.4501406-.03229.7035151-.021526.2533746-.045743.5121362-.072651.7762926-.026907.2641564-.059196.522918-.096867.7762926-.037671.2533745-.078033.4878772-.121085.7035151h-.66193l-.742653-1.9083859h-3.13206v4.2534364h2.308683l.629641-1.1159206h.500484c.075342.5498767.107631 1.1159177.096867 1.69814-.010763.5822224-.043052 1.1159182-.096867 1.6011034h-.500484l-.629641-1.1320933h-2.308683zm5.898157-4.5768917c0-.8409878.118393-1.619968.355182-2.336964.236789-.7169961.586586-1.3369458 1.049401-1.8598677s1.033253-.9299323 1.711331-1.2210435c.678079-.2911112 1.458395-.4366646 2.340973-.4366646.882577 0 1.662894.1455534 2.340972.4366646s1.245825.6981216 1.703259 1.2210435c.457433.5229219.80454 1.1428716 1.041329 1.8598677.236789.716996.355182 1.4959762.355182 2.336964 0 .8409879-.118393 1.6199681-.355182 2.3369641-.236789.7169961-.583896 1.3369457-1.041329 1.8598677-.457434.5229219-1.025181.9299323-1.703259 1.2210435s-1.458395.4366646-2.340972.4366646c-.882578 0-1.662894-.1455534-2.340973-.4366646-.678078-.2911112-1.248516-.6981216-1.711331-1.2210435-.462815-.522922-.812612-1.1428716-1.049401-1.8598677-.236789-.716996-.355182-1.4959762-.355182-2.3369641zm2.744588 0c0 .6900413.053815 1.328859.161446 1.9164723.107632.5876133.277149 1.0943548.508556 1.5202397.231408.4258848.52739.7601185.887955 1.0027112.360565.2425926.793776.3638871 1.299643.3638871.462815 0 .855664-.1212945 1.178559-.3638871.322894-.2425927.586587-.5768264.791087-1.0027112.2045-.4258849.352491-.9326264.443977-1.5202397.091487-.5876133.13723-1.226431.13723-1.9164723 0-.6900412-.051124-1.328859-.153374-1.9164722-.10225-.5876133-.263695-1.0943548-.484339-1.5202397-.220645-.4258848-.511245-.7601186-.871811-1.0027112-.360565-.2425926-.799157-.3638871-1.315788-.3638871-.495104 0-.909479.1212945-1.243136.3638871-.333658.2425926-.600042.5768264-.79916 1.0027112-.199118.4258849-.339037.9326264-.41976 1.5202397-.080724.5876132-.121085 1.226431-.121085 1.9164722zm12.681357 4.5768917c.247553.0539094.468194.1239907.66193.2102459.193737.0862551.382089.172509.565063.2587642v.6145649h-4.972548v-.6145649c.236789-.1293828.462812-.2291138.678075-.2991961.215262-.0700824.430522-.1266865.645785-.169814v-9.1537833c-.538157-.1186008-.97944-.274936-1.32386-.4690101v-.6145649h1.711331c.215263 0 .460121-.0053909.734581-.0161728s.56237-.024259.863738-.0404319c.301368-.0161728.608113-.0323454.920244-.0485183.312132-.0161728.613495-.0242591.9041-.0242591.591973 0 1.138194.0673858 1.63868.2021595.500487.1347737.931006.3369312 1.291571.6064786.360566.2695474.640403.6064765.839521 1.0107976s.298676.8760219.298676 1.4151167c0 .7762964-.188352 1.4124187-.565062 1.9083859-.37671.4959671-.893333.867937-1.549885 1.1159205.430526.6792594.887952 1.3719858 1.372294 2.0781999.484341.7062142.995583 1.3881588 1.53374 2.0458544l.774943.5175284v.5498739h-2.696154l-.69422-.5337011c-.495104-.5930043-.933696-1.2803398-1.315788-2.0620272-.382091-.7816874-.718434-1.5498859-1.009039-2.3046185h-1.307716zm.807232-9.3155109c-.333657 0-.602732.0323452-.807232.0970366v4.5122006h.952534c.54892 0 1.01711-.1967667 1.404583-.5903059.387473-.3935391.581207-.9784482.581207-1.7547446 0-.3989301-.053815-.7412502-.161446-1.0269704-.107632-.2857202-.258314-.5202229-.45205-.7035151-.193737-.1832923-.419759-.3180639-.678075-.4043191-.258315-.0862552-.538153-.1293821-.839521-.1293821zm8.804191 9.0567467c.118395.1186008.285221.2291136.500484.3315416s.500482.1536412.855665.1536412c.591973 0 1.08438-.1536397 1.477234-.4609237.392855-.307284.58928-.7358579.58928-1.2857346 0-.3989301-.126465-.7331638-.379399-1.0027112s-.573133-.5175272-.960606-.743947-.801848-.4501408-1.243137-.6711697c-.441289-.2210288-.855664-.4824858-1.243137-.7843789s-.707672-.6603857-.960606-1.0754887c-.252934-.4151029-.379399-.9299307-.379399-1.5444987 0-.5283129.096867-.9865366.290604-1.3746848.193736-.3881482.46012-.7089048.799159-.9622793.339039-.2533746.73996-.4420549 1.202776-.5660467.462815-.1239918.963293-.1859868 1.501451-.1859868.656551 0 1.267351.0458224 1.832416.1374685s1.073616.2345041 1.525668.4285782c-.010763.2156379-.029599.4636178-.056506.7439471-.026908.2803292-.061888.5579589-.104941.8328972-.043052.2749383-.088795.5336999-.137229.7762926-.048434.2425926-.094177.4447501-.137229.6064785h-.66193l-.742654-2.2156683c-.129157-.0646914-.3202-.123991-.573134-.1779004-.252934-.0539095-.513936-.0808638-.783015-.0808638-.452052 0-.834138.118599-1.146269.3558007s-.468195.5822172-.468195 1.0350568c0 .409712.129156.7574229.387472 1.0431431.258315.2857203.581205.5471773.968678.784379s.80992.4717044 1.267354.7035151c.457433.2318108.87988.4986587 1.267354.8005517.387473.3018931.710362.6549949.968678 1.0593159.258315.4043211.387471.9029763.387471 1.4959805 0 1.0781895-.363251 1.9110784-1.089763 2.4986917s-1.794738.8814156-3.20471.8814156c-.344421 0-.691527-.0215635-1.041329-.0646911s-.680764-.1024271-.992895-.1779004c-.312131-.0754732-.589278-.1563362-.831449-.2425914s-.422451-.1778999-.540845-.274937c.010763-.2479835.03767-.5148314.080723-.8005517.043053-.2857202.088795-.5714361.137229-.8571563.048435-.2857203.099559-.557959.153375-.8167245.053815-.2587655.10763-.4851819.161446-.679256h.66193zm12.972752-9.9785941h4.326762v.6145649c-.182973.1186009-.392852.2183319-.629641.2991961s-.452049.1374683-.645785.169814l-3.067481 3.8976356c.247552.3450207.538153.7358585.87181 1.1725253.333658.4366667.688836.8894995 1.065546 1.358512.37671.4690124.764178.9434087 1.162414 1.423203.398236.4797944.785704.9353226 1.162414 1.3665984l.774942.4690101v.5498739h-2.809166l-.645786-.4528373c-.258315-.3234569-.53008-.6819495-.815304-1.0754887-.285223-.3935392-.567751-.803245-.847593-1.2291299s-.554298-.8544588-.823376-1.2857346c-.269079-.4312758-.522009-.8517634-.758798-1.2614754h-.69422v4.2210909c.236789.0431275.452049.1078179.645786.1940731.193736.0862552.360563.1778999.500483.274937v.6145649h-4.891824v-.6145649c.215263-.107819.435904-.2021592.66193-.2830234s.446667-.1428592.66193-.1859867v-9.1537833c-.247552-.0323457-.487029-.0916452-.718436-.1779004-.231408-.0862551-.433214-.1832907-.605424-.2911097v-.6145649h4.891824v.6145649c-.13992.0862552-.309437.1725091-.508556.2587642-.199118.0862552-.411687.1563365-.637713.2102459v4.1078816l.952534-.2264187 2.599286-3.8814629c-.215263-.0431276-.427832-.1105134-.637713-.2021595s-.390161-.1805954-.540845-.2668506zm12.988896 0h4.00387v.6145649c-.2045.1617285-.430523.3045864-.678075.4285782s-.478956.218332-.694219.2830234v10.18884h-1.372294l-5.699057-8.2481086-.645785-1.2453027h-.048434l.145302 1.293821v6.7440417c.215263.0539095.454739.1428588.718436.2668506s.487029.2506771.670002.3800599v.6145649h-3.987724v-.6145649c.193736-.1293828.406305-.2506773.637713-.3638872.231407-.1132099.470884-.20755.718436-.2830233v-8.830328c-.215263-.0862552-.430523-.1832908-.645786-.2911097-.215262-.107819-.408996-.2210272-.581206-.339628v-.5983922h3.487241l4.63351 6.7278689.742653 1.3908576h.064579l-.080723-1.3908576v-5.4017024c-.258316-.0862552-.508555-.1913771-.750726-.3153689s-.454739-.256068-.637713-.3962327zm10.068332 11.3209333h-5.037126v-.6145649c.430525-.2372017.866426-.3935369 1.307715-.4690101v-9.1537833c-.215263-.0323457-.441285-.0916452-.678075-.1779004-.236789-.0862551-.446667-.1832907-.62964-.2911097v-.6145649h5.037126v.6145649c-.193737.1186009-.406306.2183319-.637713.2991961-.231408.0808642-.45474.1374683-.670003.169814v9.1537833c.215263.0431275.438595.1024271.670003.1779003.231407.0754733.443976.1725089.637713.2911098zm8.615314-11.3209333h4.00387v.6145649c-.2045.1617285-.430522.3045864-.678075.4285782-.247552.1239918-.478956.218332-.694219.2830234v10.18884h-1.372294l-5.699056-8.2481086-.645786-1.2453027h-.048434l.145302 1.293821v6.7440417c.215263.0539095.454739.1428588.718436.2668506s.487029.2506771.670003.3800599v.6145649h-3.987725v-.6145649c.193736-.1293828.406305-.2506773.637713-.3638872.231407-.1132099.470884-.20755.718436-.2830233v-8.830328c-.215263-.0862552-.430522-.1832908-.645785-.2911097-.215263-.107819-.408997-.2210272-.581207-.339628v-.5983922h3.487241l4.63351 6.7278689.742654 1.3908576h.064578l-.080723-1.3908576v-5.4017024c-.258315-.0862552-.508555-.1913771-.750725-.3153689-.242171-.1239918-.45474-.256068-.637714-.3962327zm14.162612 10.6093318c-.215263.1078189-.478956.2156363-.791087.3234552-.312131.107819-.640402.2048546-.984823.2911097-.34442.0862552-.688836.1563365-1.033256.2102459-.344421.0539095-.651166.0808639-.920245.0808639-.92563 0-1.751689-.1212945-2.478201-.3638872-.726512-.2425926-1.345384-.6091716-1.856633-1.0997478-.51125-.4905762-.901408-1.1024396-1.170486-1.8356085-.269079-.7331688-.403616-1.5849258-.403616-2.5552964 0-1.0566257.164135-1.954205.492411-2.6927648s.764177-1.3423369 1.307716-1.8113493c.543539-.4690125 1.159719-.8113325 1.84856-1.0269704.688842-.2156379 1.393817-.3234553 2.114948-.3234553.710367 0 1.377672.0485178 2.001935.1455549.624262.0970371 1.119359.2371996 1.485306.4204918 0 .1617284-.008072.3692768-.024217.6226513-.016145.2533746-.040361.5256133-.072651.8167245-.032289.2911112-.07265.582218-.121085.8733292-.048434.2911111-.104939.5552636-.169518.7924653h-.66193l-.9041-2.4582598c-.118395-.0539095-.295984-.094341-.532773-.1212957-.236789-.0269548-.473575-.0404319-.710364-.0404319-.441289 0-.866427.0862538-1.275426.2587642-.409.1725103-.769559.4501399-1.081691.8328972-.312131.3827573-.559679.878717-.742653 1.4878941-.182973.6091771-.274459 1.3504212-.274459 2.2237547 0 .7116051.083413 1.3612046.250242 1.9488179.166829.5876132.400924 1.0916593.702292 1.5121532s.661928.7493368 1.08169.9865385c.419763.2372017.882571.3558007 1.388439.3558007.161447 0 .328273-.0134771.500484-.0404319.17221-.0269547.333655-.0619953.484339-.1051229s.28253-.0916454.395543-.1455549.191045-.1024273.234098-.1455548v-3.0404793c-.279842-.0215638-.543535-.0754724-.791088-.1617276-.247552-.0862552-.478956-.1886816-.694219-.3072825v-.6145649h4.407486v.6145649c-.096869.0970371-.226024.1859864-.387472.2668506-.161447.0808642-.365943.14825-.613496.2021595z" fill="#c62a34"/></g></g></svg>